<svg id="Capa_1" enable-background="new 0 0 512 512" height="512" viewBox="0 0 512 512" width="512" xmlns="http://www.w3.org/2000/svg"><g><path d="m504.27 202.998-240.534-139.111c-4.786-2.768-10.686-2.768-15.473 0l-240.533 139.111c-3.434 1.986-7.73-.492-7.73-4.459v-49.91c0-1.839.98-3.538 2.572-4.459l245.692-142.094c4.786-2.768 10.686-2.768 15.473 0l245.691 142.094c1.592.921 2.572 2.62 2.572 4.459v49.91c0 3.967-4.296 6.445-7.73 4.459z" fill="#d78878"/><path d="m36.571 186.319 211.692-122.427c4.79-2.771 10.683-2.771 15.473 0l211.692 122.427v294.776c0 17.069-13.837 30.905-30.905 30.905h-377.046c-17.069 0-30.905-13.837-30.905-30.905v-294.776z" fill="#fff5c6"/><path d="m248.263 63.892-211.692 122.427v30.904l211.693-122.431c4.786-2.768 10.686-2.768 15.473 0l211.692 122.431v-30.904l-211.692-122.427c-4.791-2.771-10.683-2.771-15.474 0z" fill="#fee97d"/><path d="m418.498 512h-324.996v-201.446c0-89.745 72.753-162.498 162.498-162.498 89.745 0 162.498 72.753 162.498 162.498z" fill="#9e9797"/><path d="m386.4 213.581c.781 6.461 1.193 13.037 1.193 19.709 0 111.256-90.19 201.446-201.446 201.446h-92.645v77.264h324.996v-201.446c0-36.347-11.936-69.904-32.098-96.973z" fill="#766e6e"/><path d="m506.849 512h-501.698c-2.845 0-5.151-2.306-5.151-5.151v-32.112c0-2.845 2.306-5.151 5.151-5.151h501.698c2.845 0 5.151 2.306 5.151 5.151v32.112c0 2.845-2.306 5.151-5.151 5.151z" fill="#d78878"/><path d="m353.096 469.586h-197.539l61.811-54.505h73.917z" fill="#fed2a4"/><g><path d="m323.181 479.453c0 12.684 14.892 22.966 33.262 22.966s33.262-10.282 33.262-22.966c0-3.533-1.158-6.878-3.221-9.867h-60.08c-2.065 2.99-3.223 6.335-3.223 9.867z" fill="#c96e59"/><ellipse cx="356.443" cy="460.83" fill="#fed2a4" rx="33.262" ry="22.966"/><path d="m122.296 479.453c0 12.684 14.892 22.966 33.262 22.966s33.262-10.282 33.262-22.966c0-3.533-1.158-6.878-3.221-9.867h-60.08c-2.065 2.99-3.223 6.335-3.223 9.867z" fill="#c96e59"/><ellipse cx="155.557" cy="460.83" fill="#fed2a4" rx="33.262" ry="22.966"/></g><g><g><path d="m270.353 283.1c4.038-7.831 20.13-36.746 54.351-48.244 13.293-4.466 25.365-4.975 34.158-4.454 1.462.087 2.654 1.191 2.859 2.641 1.64 11.588 3.362 36.971-9.537 64.713-12.932 27.815-33.418 42.638-42.137 48.244-13.231-20.966-26.462-41.933-39.694-62.9z" fill="#ffbd86"/><path d="m294.556 282.846c6.89-9.823 18.719-22.414 36.71-28.459 3.546-1.191 7.195-2.085 10.921-2.678-.285 10.515-2.33 23.693-8.685 37.361-5.126 11.026-11.714 19.7-18.348 26.415z" fill="#fdf6ec"/><path d="m241.647 283.1c-4.038-7.831-20.13-36.746-54.351-48.244-13.293-4.466-25.365-4.975-34.158-4.454-1.462.087-2.654 1.191-2.859 2.641-1.64 11.588-3.362 36.971 9.537 64.713 12.932 27.815 33.418 42.638 42.137 48.244 13.231-20.966 26.462-41.933 39.694-62.9z" fill="#ffbd86"/><path d="m196.847 315.485c-6.634-6.715-13.222-15.389-18.348-26.415-6.355-13.668-8.399-26.846-8.685-37.361 3.726.593 7.375 1.486 10.921 2.678 17.991 6.045 29.819 18.636 36.71 28.459z" fill="#fdf6ec"/></g><path d="m291.285 415.081h-73.917l-21.104 18.61c7.351 4.946 15.201 9.545 23.904 13.001 33.871 13.45 72.034 13.075 105.564-1.235z" fill="#ffbd86"/><path d="m352.009 360.753c-10.563-9.699-4.66-24.721-8.006-45.851-5.502-34.754-35.152-55.439-37.118-56.768-18.338-12.402-38.106-14.228-50.885-13.838-12.779-.39-32.548 1.436-50.885 13.838-1.965 1.329-31.616 22.015-37.118 56.768-3.345 21.13 2.557 36.152-8.006 45.851-4.497 4.129-10.316 5.678-15.724 6.098-2.474.192-3.777 3.026-2.245 4.978 9.681 12.325 26.453 30.157 52.175 44.237 3.12 1.708 6.695 3.327 10.517 4.844 32.893 13.061 69.676 13.061 102.57 0 3.822-1.518 7.397-3.137 10.517-4.844 25.722-14.08 42.495-31.912 52.175-44.237 1.532-1.951.229-4.785-2.245-4.978-5.407-.42-11.225-1.968-15.722-6.098z" fill="#fed2a4"/><g><path d="m281.515 375.272c-4.267 0-7.726 3.459-7.726 7.726 0 2.774-2.257 5.031-5.031 5.031s-5.031-2.257-5.031-5.031v-25.855c0-4.267-3.459-7.726-7.726-7.726s-7.726 3.459-7.726 7.726v25.855c0 2.774-2.257 5.031-5.031 5.031s-5.031-2.257-5.031-5.031c0-4.267-3.459-7.726-7.726-7.726s-7.726 3.459-7.726 7.726c0 11.295 9.189 20.483 20.483 20.483 4.823 0 9.254-1.686 12.758-4.485 3.504 2.799 7.934 4.485 12.758 4.485 11.295 0 20.483-9.189 20.483-20.483-.002-4.267-3.461-7.726-7.728-7.726z" fill="#ffbd86"/><path d="m244.276 340.487h23.447c4.792 0 7.761 5.216 5.315 9.337l-11.724 19.746c-2.395 4.034-8.235 4.034-10.63 0l-11.724-19.746c-2.445-4.12.525-9.337 5.316-9.337z" fill="#7a6d79"/></g><g><g><path d="m298.702 303.445c-1.387 0-2.792-.374-4.059-1.158-1.511-.935-4.647-2.461-8.658-2.207-2.988.193-5.322 1.299-6.755 2.193-3.621 2.26-8.386 1.154-10.645-2.464-2.259-3.62-1.156-8.386 2.464-10.645 4.215-2.63 9.037-4.188 13.943-4.504 6.153-.399 12.467 1.198 17.784 4.489 3.628 2.245 4.749 7.008 2.503 10.636-1.462 2.361-3.99 3.66-6.577 3.66z" fill="#7a6d79"/></g><g><path d="m236.854 303.445c-1.387 0-2.792-.374-4.059-1.158-1.511-.935-4.651-2.461-8.658-2.207-2.988.193-5.322 1.299-6.755 2.193-3.621 2.26-8.386 1.154-10.645-2.464-2.259-3.62-1.156-8.386 2.464-10.645 4.215-2.63 9.037-4.188 13.943-4.504 6.15-.399 12.467 1.198 17.784 4.489 3.628 2.245 4.749 7.008 2.503 10.636-1.462 2.361-3.99 3.66-6.577 3.66z" fill="#7a6d79"/></g></g></g></g></svg>