<svg id="Capa_1" enable-background="new 0 0 511.52 511.52" height="512" viewBox="0 0 511.52 511.52" width="512" xmlns="http://www.w3.org/2000/svg"><g><g fill="#ffbd86"><path d="m378.517 146.72c8.548-13.219 23.251-39.878 26.8-76.687 2.978-30.878-3.163-55.731-7.879-70.015-4.495-.119-46.335-.538-71.883 32.623-21.876 28.394-22.679 69.56-1.276 102.037 18.079 4.014 36.158 8.028 54.238 12.042z"/><path d="m133.652 146.72c-8.548-13.219-23.251-39.878-26.8-76.687-2.978-30.878 3.163-55.731 7.879-70.015 4.495-.119 46.335-.538 71.883 32.623 21.876 28.394 22.679 69.56 1.276 102.037-18.078 4.014-36.158 8.028-54.238 12.042z"/></g><g fill="#fed2a4"><path d="m453.337 511.515h-140.368v-57.177l127.212 15.184c14.869 1.775 26.059 14.304 26.059 29.178 0 7.078-5.777 12.815-12.903 12.815z"/><path d="m58.183 511.515h140.368v-57.177l-127.212 15.184c-14.869 1.774-26.059 14.304-26.059 29.178 0 7.078 5.777 12.815 12.903 12.815z"/></g><path d="m62.128 344.486c.222-2.015.459-4.062.712-6.14 8.407-69.121 30.092-247.401 145.754-288.054 19.207-6.751 36.558-8.144 48.545-8.207h-2.109c11.987.063 29.339 1.456 48.545 8.207 115.662 40.654 137.346 218.933 145.754 288.054.253 2.08.49 4.128.712 6.144 5.955 54.105-393.868 54.103-387.913-.004z" fill="#fed2a4"/><path d="m433.72 457.56c-.59.94-1.18 1.86-1.78 2.77-21.21 32.26-57.87 51.19-96.66 51.19h-158.39c-22.86 0-44.97-6.57-63.62-18.57 15.03 1.83 28.02 3.13 32.75 3.13h92.23c55.39 0 107.53-26.56 139.78-71.61 19.32-26.98 35.82-60.95 40.41-101.44 0-.04.01-.08.01-.12 6.19-54.91-14.87-99.21-26.93-137.65-16.64-52.99-43.41-105.52-87.73-134.89 115.47 40.8 137.14 218.9 145.54 287.98.25 2.07.49 4.12.71 6.14 5.95 54.1.72 85.65-16.32 113.07z" fill="#ffbd86"/><path d="m450.037 344.486c-20.763-16.111-91.581-66.927-195.352-66.468-102.045.452-171.59 50.202-192.553 66.468-5.954 54.102-.718 85.659 16.32 113.074.583.939 1.175 1.863 1.774 2.775 21.217 32.258 57.871 51.181 96.666 51.181h66.154 26.076 66.154c38.794 0 75.449-18.922 96.666-51.181.599-.911 1.191-1.836 1.774-2.775 17.04-27.415 22.275-58.972 16.321-113.074z" fill="#f9f3f1"/><path d="m433.72 457.56c-.59.94-1.18 1.86-1.78 2.77-21.21 32.26-57.87 51.19-96.66 51.19h-158.39c-22.86 0-44.97-6.57-63.62-18.57 15.03 1.83 28.02 3.13 32.75 3.13h92.23c55.39 0 107.53-26.56 139.78-71.61 19.32-26.98 35.82-60.95 40.41-101.44 14.7 8.72 25.39 16.64 31.6 21.46 5.95 54.1.72 85.65-16.32 113.07z" fill="#f3eae6"/><g><path d="m383.691 338.797c3.544.838 5.608 4.541 4.432 7.987-3.223 9.448-7.519 20.023-13.295 31.21-.065.126-.131.253-.196.379-7.19 13.861-27.769 11.282-31.429-3.898-.811-3.365-1.565-6.848-2.244-10.444-1.909-10.111-2.93-19.522-3.393-28.006-.225-4.118 3.577-7.289 7.591-6.34z" fill="#fed2a4"/><path d="m383.691 338.797-12.59-2.977c-3.013 8.27-6.828 17.28-11.711 26.736-.065.126-.131.253-.196.379-3.51 6.766-10.209 9.605-16.574 8.983.195.853.381 1.72.583 2.558 3.66 15.18 24.239 17.758 31.429 3.898.065-.126.131-.252.196-.379 5.776-11.187 10.072-21.761 13.295-31.209 1.176-3.449-.888-7.151-4.432-7.989z" fill="#ffbd86"/><path d="m128.478 338.797c-3.544.838-5.608 4.541-4.432 7.987 3.223 9.448 7.519 20.023 13.295 31.21.065.126.131.253.196.379 7.19 13.861 27.769 11.282 31.429-3.898.811-3.365 1.565-6.848 2.244-10.444 1.909-10.111 2.93-19.522 3.393-28.006.225-4.118-3.577-7.289-7.591-6.34z" fill="#fed2a4"/><path d="m167.012 329.684-8.758 2.071c-.574 5.35-1.375 10.971-2.483 16.837-.679 3.596-1.432 7.079-2.244 10.444-2.284 9.474-11.159 14.038-19.256 12.762.979 2.044 1.99 4.105 3.069 6.195.065.126.131.253.196.379 7.19 13.861 27.769 11.282 31.429-3.898.811-3.365 1.565-6.848 2.244-10.444 1.909-10.111 2.93-19.522 3.393-28.006.226-4.118-3.576-7.289-7.59-6.34z" fill="#ffbd86"/></g><g fill="#766e6e"><ellipse cx="302.132" cy="105.935" rx="7.719" ry="7.667"/><ellipse cx="210.037" cy="105.935" rx="7.719" ry="7.667"/></g><g><path d="m274.187 216.51v21.398c0 3.979-3.226 7.204-7.204 7.204h-22.446c-3.979 0-7.204-3.226-7.204-7.204v-21.398z" fill="#fff"/><path d="m290.949 193.32c-4.263 0-7.719 3.456-7.719 7.719 0 5.446-4.43 9.875-9.875 9.875-5.446 0-9.875-4.43-9.875-9.875 0-.001 0-.001 0-.001 0-.001 0-.002 0-.003v-16.56c0-4.263-3.456-7.719-7.719-7.719s-7.719 3.456-7.719 7.719v16.56c0 5.448-4.432 9.88-9.88 9.88-2.636 0-5.11-1.025-6.983-2.904-1.861-1.856-2.887-4.333-2.887-6.976 0-4.263-3.456-7.719-7.719-7.719s-7.719 3.456-7.719 7.719c0 6.776 2.637 13.136 7.408 17.892 4.774 4.789 11.13 7.426 17.9 7.426 6.834 0 13.039-2.726 17.599-7.142 4.559 4.415 10.763 7.141 17.595 7.141 13.958 0 25.314-11.355 25.314-25.314-.002-4.262-3.458-7.718-7.721-7.718z" fill="#ffbd86"/><ellipse cx="255.76" cy="166.756" fill="#766e6e" rx="25.077" ry="17.722"/></g></g></svg>  