<svg id="Capa_1" enable-background="new 0 0 512 512" height="512" viewBox="0 0 512 512" width="512" xmlns="http://www.w3.org/2000/svg"><g><g><path d="m363 504.5h-214c-16.569 0-30-13.431-30-30v-437c0-16.569 13.431-30 30-30h214c16.569 0 30 13.431 30 30v437c0 16.569-13.431 30-30 30z" fill="#f9f3f1"/><path d="m304.879 344.708c0 72.296 59.119 120.03 86.849 138.442.824-2.74 1.272-5.642 1.272-8.65v-241.464c-50.477 12.064-88.121 57.552-88.121 111.672z" fill="#f3eae6"/><path d="m363 512h-214c-20.678 0-37.5-16.822-37.5-37.5v-437c0-20.678 16.822-37.5 37.5-37.5h214c20.678 0 37.5 16.822 37.5 37.5v437c0 20.678-16.822 37.5-37.5 37.5zm-214-497c-12.407 0-22.5 10.094-22.5 22.5v437c0 12.406 10.093 22.5 22.5 22.5h214c12.407 0 22.5-10.094 22.5-22.5v-437c0-12.406-10.093-22.5-22.5-22.5z" fill="#9e9797"/></g><g><path d="m331.595 455.286h-.1c-4.142 0-7.5-3.357-7.5-7.5s3.358-7.5 7.5-7.5h.1c4.142 0 7.5 3.357 7.5 7.5s-3.358 7.5-7.5 7.5zm-30.1 0h-.1c-4.142 0-7.5-3.357-7.5-7.5s3.358-7.5 7.5-7.5h.1c4.142 0 7.5 3.357 7.5 7.5s-3.358 7.5-7.5 7.5zm-30.1 0h-.1c-4.142 0-7.5-3.357-7.5-7.5s3.358-7.5 7.5-7.5h.1c4.142 0 7.5 3.357 7.5 7.5s-3.358 7.5-7.5 7.5zm-30.1 0c-4.142 0-7.55-3.357-7.55-7.5s3.308-7.5 7.45-7.5h.1c4.142 0 7.5 3.357 7.5 7.5s-3.358 7.5-7.5 7.5zm-30.048-.717c-.363 0-.73-.026-1.101-.081-.111-.016-.22-.034-.33-.054-4.077-.73-6.791-4.628-6.06-8.705.729-4.068 4.609-6.77 8.677-6.065 4.041.652 6.821 4.433 6.224 8.495-.548 3.729-3.751 6.41-7.41 6.41zm-26.647-13.077c-1.868 0-3.739-.693-5.193-2.09-3.048-2.805-3.225-7.528-.42-10.577 2.805-3.048 7.57-3.227 10.619-.421l.189.178c2.988 2.868 3.085 7.616.216 10.604-1.472 1.534-3.44 2.306-5.411 2.306zm-15.189-25.496c-3.382 0-6.451-2.303-7.283-5.735-1.033-4.011 1.382-8.097 5.393-9.13 4.014-1.03 8.101 1.386 9.134 5.396.009.035.042.166.051.201.976 4.025-1.497 8.08-5.522 9.056-.594.143-1.189.212-1.773.212zm1.226-29.65c-.819 0-1.651-.135-2.468-.42-3.911-1.363-5.977-5.639-4.614-9.55 1.346-3.917 5.624-6.034 9.542-4.688 3.917 1.347 6.012 5.581 4.666 9.499l-.043.124c-1.079 3.095-3.981 5.035-7.083 5.035zm17.237-24.165c-2.235 0-4.447-.994-5.925-2.896-2.543-3.27-1.954-7.981 1.315-10.524l.079-.062c3.27-2.544 7.981-1.955 10.524 1.315s1.954 7.981-1.315 10.524l-.079.062c-1.369 1.065-2.99 1.581-4.599 1.581zm27.612-10.834c-3.941 0-7.246-3.074-7.48-7.06-.241-4.106 2.868-7.635 6.96-7.922 4.117-.334 7.727 2.712 8.086 6.821.361 4.124-2.677 7.76-6.801 8.123-.073.007-.245.02-.318.024-.15.01-.299.014-.447.014zm30.2-.184h-.1c-4.142 0-7.5-3.357-7.5-7.5s3.358-7.5 7.5-7.5h.1c4.142 0 7.5 3.357 7.5 7.5s-3.358 7.5-7.5 7.5zm29.78-2.171c-3.218 0-6.193-2.088-7.175-5.327-1.201-3.964 1.039-8.151 5.003-9.353 3.958-1.218 8.188.994 9.406 4.953s-.971 8.146-4.93 9.363l-.126.039c-.725.221-1.457.325-2.178.325zm24.82-16.273c-1.711 0-3.432-.582-4.841-1.774-3.162-2.676-3.556-7.408-.881-10.57 2.676-3.162 7.44-3.595 10.603-.919 3.162 2.676 3.588 7.37.913 10.532l-.064.076c-1.484 1.752-3.6 2.655-5.73 2.655zm11.926-27.175c-.328 0-.659-.021-.993-.065-4.106-.544-6.995-4.313-6.451-8.42.484-4.113 4.215-7.045 8.324-6.568 4.114.484 7.056 4.216 6.572 8.329l-.026.208c-.499 3.771-3.721 6.516-7.426 6.516zm-2.498-29.752c-3.141 0-6.066-1.987-7.114-5.13-1.401-3.898.636-8.159 4.534-9.56 3.897-1.404 8.205.658 9.606 4.557l.09.259c1.31 3.93-.814 8.178-4.744 9.487-.786.262-1.586.387-2.372.387zm-17.358-24.078c-1.609 0-3.23-.516-4.599-1.58l-.079-.062c-3.27-2.543-3.859-7.255-1.315-10.524 2.542-3.271 7.254-3.859 10.524-1.315l.079.062c3.27 2.543 3.859 7.255 1.315 10.524-1.478 1.901-3.69 2.895-5.925 2.895zm-27.665-10.695c-.148 0-.297-.004-.447-.013-.073-.005-.246-.018-.318-.024-4.126-.364-7.176-4.004-6.812-8.13.364-4.118 3.992-7.163 8.106-6.813 4.088.291 7.193 3.817 6.952 7.921-.235 3.983-3.541 7.059-7.481 7.059zm-.001-8.706-.105 1.198z" fill="#9e9797"/></g><g><path d="m149.132 289.907c-32.863 0-62.595-19.379-75.698-49.34l-15.633-35.746c-9.047-20.686-10.023-43.979-2.739-65.342l8.973-26.315c8.302-24.348 31.288-40.73 57.148-40.73h55.898c25.861 0 48.846 16.382 57.148 40.73l8.973 26.315c7.284 21.363 6.308 44.656-2.739 65.342l-15.633 35.746c-13.103 29.96-42.835 49.34-75.698 49.34z" fill="#fed2a4"/><path d="m243.203 139.479-8.973-26.314c-7.097-20.815-24.929-35.797-46.111-39.71 7.192 6.63 12.813 15.039 16.111 24.71l8.973 26.314c7.284 21.363 6.308 44.656-2.739 65.342l-15.633 35.746c-13.103 29.961-42.835 49.34-75.698 49.34-7.299 0-14.443-.961-21.285-2.777 14.305 11.276 32.267 17.777 51.285 17.777 32.863 0 62.595-19.379 75.698-49.34l15.633-35.746c9.046-20.686 10.023-43.98 2.739-65.342z" fill="#ffbd86"/><g><path d="m290.764 165.192c0 14.706-18.422 21.531-28.042 10.36-8.718-10.124-17.673-21.811-26.284-35.163-9.008-13.969-16.185-27.506-21.919-40.05-8.644-18.91 13.469-36.975 30.422-24.835l38.499 27.568c4.599 3.293 7.324 8.584 7.324 14.218z" fill="#d78878"/><path d="m283.44 103.071-17.135-12.271c1.076 2.291 1.662 4.813 1.662 7.412v47.903c0 9.708-8.028 15.977-16.252 15.906 3.682 4.782 7.365 9.301 11.007 13.53 9.62 11.172 28.042 4.346 28.042-10.36v-47.903c0-5.633-2.725-10.923-7.324-14.217z" fill="#c96e59"/><path d="m7.5 165.192c0 14.706 18.422 21.531 28.042 10.36 8.718-10.124 17.673-21.811 26.284-35.163 9.008-13.969 16.185-27.506 21.919-40.05 8.644-18.91-13.469-36.975-30.422-24.835l-38.499 27.568c-4.599 3.293-7.324 8.584-7.324 14.218 0 0 0 47.902 0 47.902z" fill="#d78878"/></g><g><g><path d="m128.208 150.825c-.923 0-1.861-.172-2.771-.533-3.427-1.363-7.035-2.046-10.72-2.01-3.523.029-6.974.705-10.253 2.01-3.849 1.534-8.21-.348-9.741-4.196-1.531-3.85.348-8.21 4.197-9.741 5.011-1.993 10.285-3.027 15.674-3.072 5.642-.06 11.152.988 16.389 3.072 3.849 1.532 5.727 5.894 4.195 9.742-1.168 2.938-3.988 4.728-6.97 4.728z" fill="#7a6d79"/></g><g><path d="m196.569 150.825c-.923 0-1.861-.172-2.771-.533-3.426-1.363-7.042-2.046-10.72-2.01-3.523.029-6.974.705-10.253 2.01-3.848 1.534-8.21-.348-9.741-4.196-1.531-3.85.348-8.21 4.197-9.741 5.011-1.993 10.285-3.027 15.674-3.072 5.642-.06 11.152.988 16.389 3.072 3.849 1.532 5.727 5.894 4.195 9.742-1.168 2.938-3.988 4.728-6.97 4.728z" fill="#7a6d79"/></g></g><g><path d="m174.23 233.171c-4.142 0-7.5 3.357-7.5 7.5 0 3.6-2.965 6.527-6.609 6.527s-6.609-2.928-6.609-6.527v-26.437c0-4.143-3.358-7.5-7.5-7.5s-7.5 3.357-7.5 7.5v26.437c0 3.6-2.965 6.527-6.609 6.527-3.645 0-6.609-2.928-6.609-6.527 0-4.143-3.358-7.5-7.5-7.5s-7.5 3.357-7.5 7.5c0 11.87 9.694 21.527 21.609 21.527 5.389 0 10.32-1.98 14.109-5.243 3.789 3.262 8.72 5.243 14.109 5.243 11.916 0 21.609-9.657 21.609-21.527 0-4.143-3.358-7.5-7.5-7.5z" fill="#ffbd86"/><path d="m133.045 193.932h25.932c5.3 0 8.584 5.735 5.878 10.266l-12.966 21.711c-2.649 4.435-9.107 4.435-11.756 0l-12.966-21.711c-2.705-4.531.579-10.266 5.878-10.266z" fill="#7a6d79"/></g></g><path d="m286.645 45.251h-61.289c-16.569 0-30-13.431-30-30v-7.751h121.289v7.751c0 16.569-13.432 30-30 30z" fill="#9e9797"/><g><path d="m504.5 344.708c0 66.227-84.811 120.395-84.811 120.395s-84.811-44.951-84.811-120.395c0-46.84 37.971-84.811 84.811-84.811s84.811 37.972 84.811 84.811z" fill="#fe76a8"/><path d="m441.813 262.832c19.885 15.521 32.687 39.697 32.687 66.877 0 57.669-64.3 106.188-80.919 117.766 14.566 11.506 26.109 17.629 26.109 17.629s84.81-54.169 84.81-120.395c0-39.184-26.579-72.144-62.687-81.877z" fill="#fe5694"/><circle cx="419.689" cy="336.368" fill="#fff" r="29.137"/></g></g></svg>