<svg id="Capa_1" enable-background="new 0 0 512 512" height="512" viewBox="0 0 512 512" width="512" xmlns="http://www.w3.org/2000/svg"><g><g><path d="m242.299 512h-177.601c-16.815 0-30.446-13.631-30.446-30.446v-23.553l15.223-113.454-15.223-113.454v-23.553c0-16.815 13.631-30.446 30.446-30.446h177.602c16.815 0 30.446 13.631 30.446 30.446v23.553l-15.223 113.454 15.223 113.454v23.553c-.001 16.815-13.632 30.446-30.447 30.446z" fill="#fe93bb"/><path d="m242.299 177.094h-4.083c2.592 4.479 4.083 9.675 4.083 15.223v151.74c0 84.345-68.375 152.719-152.719 152.719h-51.245c5.265 9.099 15.095 15.224 26.363 15.224h177.602c16.815 0 30.446-13.631 30.446-30.446v-23.553l-15.223-113.454 15.223-113.454v-23.553c-.001-16.815-13.632-30.446-30.447-30.446z" fill="#fe76a8"/><path d="m34.252 231.093h238.494v226.907h-238.494z" fill="#fff5c6"/><path d="m242.299 344.057c0 45.294-19.725 85.976-51.046 113.943h81.492v-226.907h-30.446z" fill="#fee45a"/><g><path d="m244.836 177.094h-177.601c-8.407 0-15.223-6.816-15.223-15.223v-32.476c0-8.407 6.816-15.223 15.223-15.223h177.602c8.407 0 15.223 6.816 15.223 15.223v32.476c-.001 8.408-6.816 15.223-15.224 15.223z" fill="#9e9797"/><path d="m244.836 114.172h-30.446c8.407 0 15.223 6.816 15.223 15.223v32.476c0 8.407-6.816 15.223-15.223 15.223h30.446c8.407 0 15.223-6.816 15.223-15.223v-32.476c0-8.407-6.815-15.223-15.223-15.223z" fill="#766e6e"/><g><g><path d="m87.532 177.094v-28.405c0-4.204 3.407-7.611 7.611-7.611s7.611 3.408 7.611 7.611v28.405z" fill="#766e6e"/></g><g><path d="m128.127 177.094v-28.405c0-4.204 3.407-7.611 7.611-7.611s7.611 3.408 7.611 7.611v28.405z" fill="#766e6e"/></g><g><path d="m168.722 177.094v-28.405c0-4.204 3.407-7.611 7.611-7.611s7.611 3.408 7.611 7.611v28.405z" fill="#766e6e"/></g><g><path d="m209.316 177.094v-28.405c0-4.204 3.407-7.611 7.611-7.611s7.611 3.408 7.611 7.611v28.405z" fill="#766e6e"/></g></g></g><path d="m200.69 325.265h-20.805c-3.923 0-7.104-3.181-7.104-7.104v-20.805c0-3.923-3.181-7.104-7.104-7.104h-24.357c-3.923 0-7.104 3.181-7.104 7.104v20.805c0 3.923-3.181 7.104-7.104 7.104h-20.805c-3.923 0-7.104 3.181-7.104 7.104v24.357c0 3.923 3.181 7.104 7.104 7.104h20.805c3.923 0 7.104 3.181 7.104 7.104v20.805c0 3.923 3.181 7.104 7.104 7.104h24.357c3.923 0 7.104-3.181 7.104-7.104v-20.805c0-3.923 3.181-7.104 7.104-7.104h20.805c3.923 0 7.104-3.181 7.104-7.104v-24.357c0-3.924-3.181-7.104-7.104-7.104z" fill="#fe93bb"/></g><g><path d="m368.12 431.946h60.859v47.071h-60.859z" fill="#f9f3f1"/><path d="m368.119 431.946v15.222l60.86 15.223v-30.445z" fill="#f3eae6"/><path d="m459.425 398.962h-121.751v-250.044c0-5.605 4.544-10.149 10.149-10.149h101.454c5.605 0 10.149 4.544 10.149 10.149v250.044z" fill="#f9f3f1"/><path d="m449.276 138.769h-20.297v153.665c0 50.427-40.879 91.305-91.305 91.305v15.223h121.751v-250.044c0-5.605-4.544-10.149-10.149-10.149z" fill="#f3eae6"/><g><path d="m398.549 115.935c-4.204 0-7.612-3.408-7.612-7.611v-100.713c0-4.204 3.407-7.611 7.612-7.611s7.611 3.408 7.611 7.611v100.712c.001 4.204-3.407 7.612-7.611 7.612z" fill="#f9f3f1"/></g><g><g><path d="m459.425 185.139h-30.446c-4.204 0-7.612-3.408-7.612-7.611 0-4.204 3.407-7.611 7.612-7.611h30.446z" fill="#e1d3ce"/></g><g><path d="m459.425 230.808h-30.446c-4.204 0-7.612-3.408-7.612-7.611 0-4.204 3.407-7.611 7.612-7.611h30.446z" fill="#e1d3ce"/></g><g><path d="m459.425 276.478h-30.446c-4.204 0-7.612-3.407-7.612-7.611s3.407-7.612 7.612-7.612h30.446z" fill="#e1d3ce"/></g><g><path d="m459.425 322.147h-30.446c-4.204 0-7.612-3.407-7.612-7.611s3.407-7.612 7.612-7.612h30.446z" fill="#e1d3ce"/></g><g><path d="m459.425 367.816h-30.446c-4.204 0-7.612-3.407-7.612-7.612s3.407-7.612 7.612-7.612h30.446z" fill="#e1d3ce"/></g></g><path d="m461.257 512h-125.415c-9.108 0-16.492-7.384-16.492-16.492 0-9.108 7.384-16.492 16.492-16.492h125.415c9.108 0 16.492 7.384 16.492 16.492-.001 9.108-7.384 16.492-16.492 16.492z" fill="#fe93bb"/><path d="m461.257 479.017h-30.446c9.108 0 16.492 7.384 16.492 16.492 0 9.108-7.384 16.492-16.492 16.492h30.446c9.108 0 16.492-7.384 16.492-16.492-.001-9.109-7.384-16.492-16.492-16.492z" fill="#fe76a8"/><path d="m468.614 431.946h-140.13c-5.044 0-9.134-4.089-9.134-9.134v-14.716c0-5.044 4.089-9.134 9.134-9.134h140.13c5.044 0 9.134 4.089 9.134 9.134v14.716c0 5.044-4.089 9.134-9.134 9.134z" fill="#fe93bb"/><path d="m468.614 398.962h-30.446c5.045 0 9.134 4.089 9.134 9.134v14.716c0 5.044-4.089 9.134-9.134 9.134h30.446c5.045 0 9.134-4.089 9.134-9.134v-14.716c0-5.044-4.089-9.134-9.134-9.134z" fill="#fe76a8"/><path d="m428.979 138.769h-60.859v-20.297c0-5.605 4.544-10.149 10.149-10.149h40.562c5.605 0 10.149 4.544 10.149 10.149v20.297z" fill="#fe93bb"/><path d="m418.83 108.323h-30.446c5.605 0 10.149 4.544 10.149 10.149v20.297h30.446v-20.297c0-5.605-4.544-10.149-10.149-10.149z" fill="#fe76a8"/></g></g></svg>